<svg xmlns="http://www.w3.org/2000/svg" width="180" height="50"><path fill="#20bd67" d="M66.54 34h4.08l-7.51-16.8h-3.84L51.78 34h3.99l1.49-3.6h7.8zm-8.04-6.55l2.67-6.43 2.66 6.43zm17.81 6.74c3.87 0 6.1-1.7 6.1-4.1 0-5.09-7.8-2.95-7.8-5.16 0-.67.72-1.2 2.4-1.2 1.17 0 2.45.24 3.72.96l1.25-2.67c-1.23-.72-3.2-1.12-4.97-1.12-3.77 0-5.98 1.72-5.98 4.17 0 5.16 7.8 3 7.8 5.11 0 .72-.65 1.18-2.37 1.18-1.59 0-3.34-.5-4.49-1.25l-1.25 2.69c1.2.79 3.41 1.39 5.59 1.39zm12.72 0c3.87 0 6.1-1.7 6.1-4.1 0-5.09-7.8-2.95-7.8-5.16 0-.67.72-1.2 2.4-1.2 1.17 0 2.45.24 3.72.96l1.25-2.67c-1.23-.72-3.2-1.12-4.97-1.12-3.77 0-5.98 1.72-5.98 4.17 0 5.16 7.8 3 7.8 5.11 0 .72-.65 1.18-2.37 1.18-1.59 0-3.34-.5-4.49-1.25l-1.25 2.69c1.2.79 3.41 1.39 5.59 1.39zm21.03-6.6c0-4.15-2.93-6.69-6.72-6.69-3.94 0-6.89 2.78-6.89 6.64 0 3.84 2.9 6.65 7.37 6.65 2.32 0 4.12-.72 5.32-2.09l-1.99-2.16c-.89.84-1.87 1.25-3.24 1.25-1.97 0-3.33-.98-3.69-2.59h9.76c.03-.31.08-.72.08-1.01zm-6.7-3.86c1.68 0 2.9 1.05 3.17 2.69h-6.36c.26-1.66 1.49-2.69 3.19-2.69zm25.7-2.83c-1.94 0-3.62.79-4.65 2.11-.91-1.42-2.45-2.11-4.25-2.11-1.66 0-3.1.57-4.06 1.68v-1.49h-3.57V34h3.74v-6.48c0-2.3 1.18-3.38 2.83-3.38 1.56 0 2.45.96 2.45 3.04V34h3.75v-6.48c0-2.3 1.17-3.38 2.85-3.38 1.51 0 2.45.96 2.45 3.04V34h3.74v-7.39c0-3.94-2.2-5.71-5.28-5.71zm16.25 0c-1.61 0-2.93.5-3.89 1.56v-6.27h-3.74V34h3.58v-1.49c.93 1.13 2.32 1.68 4.05 1.68 3.63 0 6.43-2.59 6.43-6.65 0-4.05-2.8-6.64-6.43-6.64zm-.65 10.22c-1.87 0-3.28-1.34-3.28-3.58 0-2.23 1.41-3.57 3.28-3.57 1.88 0 3.29 1.34 3.29 3.57 0 2.24-1.41 3.58-3.29 3.58zm22.2-3.53c0-4.15-2.92-6.69-6.72-6.69-3.93 0-6.88 2.78-6.88 6.64 0 3.84 2.9 6.65 7.36 6.65 2.33 0 4.13-.72 5.33-2.09l-1.99-2.16c-.89.84-1.87 1.25-3.24 1.25-1.97 0-3.34-.98-3.7-2.59h9.77c.03-.31.07-.72.07-1.01zm-6.69-3.86c1.68 0 2.9 1.05 3.17 2.69h-6.36c.26-1.66 1.48-2.69 3.19-2.69z"/><path fill-rule="evenodd" fill="#20bd67" class="shp0" d="M42.5 12.5v5h-5v-5h5zm-8.01 4.14l-2.93 4.1-4.06-2.93 2.89-4.06 4.1 2.89zM22.5 20v5h-5v-5h5zm16.48 5.98l-3.98 3L31.99 25l3.99-3.01 3 3.99zm-16.48.27v5h-5v-5h5zm6.25 0v5h-5v-5h5zM22.5 32.5v5h-5v-5h5zm6.25 0v5h-5v-5h5zm6.25 0v5h-5v-5h5z"/><g aria-label="BETA" style="line-height:1.25;-inkscape-font-specification:'Source Sans Pro'" font-weight="400" font-size="13.333" font-family="Source Sans Pro" letter-spacing="0" word-spacing="0" fill="#f60"><path d="M139.177 44.618v-8.746h2.6q.667 0 1.213.12.56.12.947.373.4.253.613.667.227.4.227.973 0 .653-.333 1.187-.32.52-.947.72v.053q.8.147 1.293.667.494.52.494 1.426 0 .64-.24 1.12-.24.48-.68.8-.44.32-1.054.48-.613.16-1.346.16zm1.107-5.026h1.293q1.12 0 1.613-.387.494-.387.494-1.053 0-.76-.52-1.08-.507-.32-1.534-.32h-1.346zm0 4.146h1.52q1.133 0 1.76-.413.626-.427.626-1.307 0-.813-.613-1.186-.613-.387-1.773-.387h-1.52zM147.016 44.618v-8.746h5.04v.933h-3.934v2.747h3.32v.946h-3.32v3.174h4.067v.946zM155.86 44.618v-7.813h-2.64v-.933h6.4v.933h-2.64v7.813zM162.168 39.725l-.413 1.333h2.626l-.413-1.333q-.24-.733-.453-1.453-.214-.734-.427-1.494h-.053q-.2.76-.413 1.494-.214.72-.454 1.453zm-2.667 4.893l2.96-8.746h1.254l2.96 8.746h-1.187l-.827-2.666h-3.186l-.84 2.666z"/></g></svg>
